<?xml version="1.0" encoding="UTF-8"?>
<svg id="Layer_1" xmlns="http://www.w3.org/2000/svg" version="1.1" viewBox="0 0 1349.6 802.17">
  <!-- Generator: Adobe Illustrator 29.3.1, SVG Export Plug-In . SVG Version: 2.1.0 Build 151)  -->
  <defs>
    <style>
      .st0 {
        fill: #015547;
      }

      .st1 {
        fill: #81bc4a;
      }
    </style>
  </defs>
  <g>
    <g>
      <path class="st1" d="M250.3,718.03h-58.89l-16.83-39.96h-98.86l-16.83,39.96H0l124.45-262.22h1.4l124.45,262.22ZM92.55,636.36h65.2l-32.6-77.12-32.6,77.12Z"/>
      <path class="st1" d="M399.98,560.29l2.45-19.98h46.27v170.37c0,56.79-38.21,91.5-96.4,91.5-40.66,0-66.96-15.42-87.29-38.21l33.65-33.65c12.97,14.72,28.75,26.99,52.93,26.99,28.4,0,45.22-19.28,45.57-45.57v-13.67c-8.41,9.82-23.84,19.63-49.43,19.63-46.97,0-79.23-38.21-79.23-90.44s32.25-90.44,79.23-90.44c25.59,0,43.12,10.52,52.23,23.49ZM320.76,627.24c0,28.04,16.13,45.57,39.61,45.57,17.88,0,29.1-9.82,36.81-22.44v-46.27c-7.71-12.62-18.93-22.44-36.81-22.44-23.49,0-39.61,17.53-39.61,45.57Z"/>
      <path class="st1" d="M603.3,587.98h-4.21c-21.03,0-34.35,10.52-44.52,23.49v106.57h-51.53v-177.73h45.92l3.15,23.49c8.76-14.37,26.29-26.99,51.18-26.99v51.18Z"/>
      <path class="st1" d="M812.23,629.7c0,53.28-39.96,91.85-93.95,91.85s-93.25-38.56-93.25-91.85,39.26-92.9,93.25-92.9,93.95,39.61,93.95,92.9ZM676.91,629.7c0,26.99,17.53,46.97,41.37,46.97s41.72-19.98,41.72-46.97-17.53-48.03-41.72-48.03-41.37,20.68-41.37,48.03Z"/>
      <path class="st0" d="M1047.8,545.56c0,54.69-41.01,85.19-90.44,85.19h-49.43v87.29h-53.64v-257.66h103.06c49.08,0,90.44,30.5,90.44,85.18ZM907.92,506.65v77.82h44.17c24.89,0,41.72-12.97,41.72-38.91s-16.83-38.91-41.72-38.91h-44.17Z"/>
      <path class="st0" d="M1348.92,718.03h-53.28v-108.32l-75.02,111.83h-2.8l-75.02-111.83v108.32h-53.64v-262.22h1.4l128.65,181.59,128.3-181.59h1.4v262.22Z"/>
    </g>
    <g>
      <path class="st0" d="M539.76,767.99c0,10.38-7.79,16.18-17.17,16.18h-9.39v16.58h-10.19v-48.93h19.57c9.32,0,17.17,5.79,17.17,16.18ZM513.2,760.6v14.78h8.39c4.73,0,7.92-2.46,7.92-7.39s-3.2-7.39-7.92-7.39h-8.39Z"/>
      <path class="st0" d="M585.49,767.65c0,6.86-3.73,11.72-8.99,14.11l11.38,18.97h-11.85l-10.25-17.24h-6.72v17.24h-10.12v-48.93h19.17c9.39,0,17.37,5.72,17.37,15.84ZM559.06,760.6v14.11h8.12c4.79,0,7.99-2.46,7.99-7.06s-3.2-7.06-7.99-7.06h-8.12Z"/>
      <path class="st0" d="M643.2,776.37c0,14.58-10.78,25.23-25.16,25.23s-25.1-10.65-25.1-25.23,10.65-25.43,25.1-25.43,25.16,10.72,25.16,25.43ZM603.19,776.37c0,9.32,6.12,15.98,14.85,15.98s14.84-6.66,14.84-15.98-6.12-16.18-14.84-16.18-14.85,6.72-14.85,16.18Z"/>
      <path class="st0" d="M681.41,786.09c0,9.25-6.66,15.51-16.04,15.51-8.59,0-16.44-5.86-16.44-17.31h9.85c0,5.19,2.2,8.05,6.26,8.05s6.26-2.66,6.26-6.79v-33.75h10.12v34.28Z"/>
      <path class="st0" d="M724.75,761.06h-21.44v10.58h18.57v8.59h-18.57v11.25h21.97v9.25h-32.15v-48.93h31.62v9.25Z"/>
      <path class="st0" d="M775.14,758.27l-6.39,7.39c-2.6-3.06-6.32-5.46-11.32-5.46-8.99,0-14.85,6.72-14.85,16.04s5.86,16.11,14.85,16.11c5.06,0,8.85-2.46,11.45-5.59l6.32,7.39c-4.86,5.33-10.65,7.46-17.77,7.46-14.71,0-25.1-10.85-25.1-25.36s10.38-25.3,25.1-25.3c7.72,0,12.98,2.46,17.71,7.32Z"/>
      <path class="st0" d="M821.4,760.73h-15.91v40.01h-10.12v-40.01h-15.84v-8.92h41.87v8.92Z"/>
      <path class="st0" d="M897.08,800.74h-10.12v-20.57l-14.25,21.23h-.53l-14.25-21.23v20.57h-10.19v-49.79h.27l24.43,34.48,24.36-34.48h.27v49.79Z"/>
      <path class="st0" d="M952.53,800.74h-11.18l-3.19-7.59h-18.77l-3.2,7.59h-11.18l23.63-49.79h.27l23.63,49.79ZM922.58,785.23h12.38l-6.19-14.65-6.19,14.65Z"/>
      <path class="st0" d="M999.73,801.6h-.27l-28.89-28.16v27.29h-10.19v-49.79h.27l28.89,28.16v-27.29h10.18v49.79Z"/>
      <path class="st0" d="M1055.11,800.74h-11.18l-3.19-7.59h-18.77l-3.2,7.59h-11.18l23.63-49.79h.27l23.63,49.79ZM1025.16,785.23h12.38l-6.19-14.65-6.19,14.65Z"/>
      <path class="st0" d="M1101.24,758.27l-6.39,7.39c-2.6-3.06-6.32-5.46-11.32-5.46-8.99,0-14.85,6.72-14.85,16.04s6.12,16.11,15.51,16.11c3.2,0,5.86-1,8.12-2.46v-7.92h-10.58v-8.72h20.7v21.63c-4.73,4.46-10.92,6.72-18.24,6.72-15.11,0-25.76-10.85-25.76-25.36s10.38-25.3,25.1-25.3c7.72,0,12.98,2.46,17.71,7.32Z"/>
      <path class="st0" d="M1145.44,761.06h-21.44v10.58h18.57v8.59h-18.57v11.25h21.97v9.25h-32.15v-48.93h31.62v9.25Z"/>
      <path class="st0" d="M1205.22,800.74h-10.12v-20.57l-14.25,21.23h-.53l-14.25-21.23v20.57h-10.19v-49.79h.27l24.43,34.48,24.36-34.48h.27v49.79Z"/>
      <path class="st0" d="M1249.29,761.06h-21.44v10.58h18.57v8.59h-18.57v11.25h21.97v9.25h-32.15v-48.93h31.62v9.25Z"/>
      <path class="st0" d="M1299.08,801.6h-.27l-28.89-28.16v27.29h-10.19v-49.79h.27l28.89,28.16v-27.29h10.18v49.79Z"/>
      <path class="st0" d="M1349.6,760.73h-15.91v40.01h-10.12v-40.01h-15.84v-8.92h41.87v8.92Z"/>
    </g>
  </g>
  <g>
    <g>
      <path class="st0" d="M716.86,346.92l-9.69-12.66c-10.53-13.76-20.36-26.4-29.03-37.55-46.65-59.98-70.06-90.09-70.14-123.1-.08-33.04,23.19-62.97,69.56-122.61,8.84-11.37,18.86-24.25,29.63-38.34l9.69-12.67,9.69,12.66c10.53,13.76,20.36,26.4,29.03,37.55,46.64,59.98,70.05,90.09,70.13,123.1.08,33.04-23.19,62.97-69.55,122.6-8.84,11.37-18.86,24.25-29.62,38.34l-9.69,12.67ZM716.88,40.1c-7.17,9.3-13.9,17.95-20.06,25.88-42.94,55.21-64.49,82.93-64.43,107.57.06,24.67,21.77,52.58,65,108.18,5.98,7.69,12.51,16.09,19.46,25.09,7.17-9.3,13.9-17.96,20.06-25.88,42.93-55.22,64.48-82.93,64.41-107.57-.06-24.67-21.76-52.58-64.99-108.18-5.98-7.69-12.51-16.09-19.45-25.09Z"/>
      <path class="st0" d="M716.83,192.59c-10.43,0-20.86-3.97-28.81-11.91-15.88-15.88-15.88-41.73,0-57.62,7.69-7.69,17.93-11.93,28.81-11.93s21.11,4.24,28.81,11.93c15.88,15.88,15.88,41.73,0,57.62-7.94,7.94-18.37,11.91-28.81,11.91ZM716.83,135.53c-4.18,0-8.37,1.59-11.56,4.78-6.37,6.37-6.37,16.74,0,23.11,6.37,6.37,16.74,6.37,23.11,0,6.37-6.37,6.37-16.74,0-23.11-3.19-3.19-7.37-4.78-11.56-4.78Z"/>
      <rect class="st0" x="704.63" y="173.46" width="24.4" height="413.79"/>
      <g>
        <g>
          <path class="st0" d="M896.21,358.95c-22.46,0-40.74-18.28-40.74-40.74s18.28-40.74,40.74-40.74,40.74,18.28,40.74,40.74-18.28,40.74-40.74,40.74ZM896.21,301.87c-9.01,0-16.34,7.33-16.34,16.34s7.33,16.34,16.34,16.34,16.34-7.33,16.34-16.34-7.33-16.34-16.34-16.34Z"/>
          <path class="st0" d="M879.32,436.16c-21.19,0-47.48-2.32-81.38-5.3-14.34-1.26-30.6-2.7-48.27-4.11l-15.89-1.27,5.39-15.01c5.85-16.31,11.15-31.42,15.81-44.75,25.12-71.71,37.72-107.71,65.42-125.67,27.72-17.98,65.49-14.65,140.74-8.01,14.34,1.26,30.6,2.7,48.28,4.11l15.9,1.27-5.39,15.01c-5.86,16.31-11.15,31.42-15.82,44.75-25.12,71.71-37.73,107.7-65.42,125.66-15.23,9.88-33.5,13.33-59.34,13.33ZM767.45,403.73c11.7.98,22.62,1.94,32.62,2.83,69.67,6.14,104.64,9.22,125.31-4.19,20.7-13.43,32.39-46.79,55.67-113.26,3.22-9.2,6.74-19.24,10.54-29.95-11.7-.98-22.62-1.95-32.62-2.83-69.67-6.15-104.64-9.23-125.32,4.18-20.7,13.43-32.39,46.79-55.67,113.27-3.22,9.2-6.74,19.24-10.54,29.95Z"/>
          <rect class="st0" x="700.11" y="373.31" width="189.1" height="24.4" transform="translate(-82.36 490.12) rotate(-32.68)"/>
          <path class="st0" d="M896.21,358.95c-22.46,0-40.74-18.28-40.74-40.74s18.28-40.74,40.74-40.74,40.74,18.28,40.74,40.74-18.28,40.74-40.74,40.74ZM896.21,301.87c-9.01,0-16.34,7.33-16.34,16.34s7.33,16.34,16.34,16.34,16.34-7.33,16.34-16.34-7.33-16.34-16.34-16.34Z"/>
          <path class="st0" d="M879.32,436.16c-21.19,0-47.48-2.32-81.38-5.3-14.34-1.26-30.6-2.7-48.27-4.11l-15.89-1.27,5.39-15.01c5.85-16.31,11.15-31.42,15.81-44.75,25.12-71.71,37.72-107.71,65.42-125.67,27.72-17.98,65.49-14.65,140.74-8.01,14.34,1.26,30.6,2.7,48.28,4.11l15.9,1.27-5.39,15.01c-5.86,16.31-11.15,31.42-15.82,44.75-25.12,71.71-37.73,107.7-65.42,125.66-15.23,9.88-33.5,13.33-59.34,13.33ZM767.45,403.73c11.7.98,22.62,1.94,32.62,2.83,69.67,6.14,104.64,9.22,125.31-4.19,20.7-13.43,32.39-46.79,55.67-113.26,3.22-9.2,6.74-19.24,10.54-29.95-11.7-.98-22.62-1.95-32.62-2.83-69.67-6.15-104.64-9.23-125.32,4.18-20.7,13.43-32.39,46.79-55.67,113.27-3.22,9.2-6.74,19.24-10.54,29.95Z"/>
          <rect class="st0" x="700.11" y="373.31" width="189.1" height="24.4" transform="translate(-82.36 490.12) rotate(-32.68)"/>
        </g>
        <g>
          <path class="st0" d="M537.45,358.95c-22.46,0-40.74-18.28-40.74-40.74s18.28-40.74,40.74-40.74,40.74,18.28,40.74,40.74-18.28,40.74-40.74,40.74ZM537.45,301.87c-9.01,0-16.34,7.33-16.34,16.34s7.33,16.34,16.34,16.34,16.34-7.33,16.34-16.34-7.33-16.34-16.34-16.34Z"/>
          <path class="st0" d="M554.34,436.16c-25.85,0-44.11-3.45-59.34-13.33-27.69-17.96-40.3-53.96-65.42-125.66-4.67-13.33-9.96-28.44-15.82-44.75l-5.39-15.01,15.9-1.27c17.67-1.41,33.93-2.85,48.28-4.11,75.25-6.64,113.02-9.97,140.74,8.01,27.69,17.97,40.3,53.96,65.42,125.67,4.67,13.33,9.96,28.44,15.81,44.75l5.39,15.01-15.89,1.27c-17.67,1.41-33.93,2.85-48.27,4.11-33.9,2.99-60.19,5.3-81.38,5.3ZM442.06,259.16c3.8,10.71,7.31,20.75,10.54,29.95,23.29,66.47,34.97,99.83,55.67,113.26,20.67,13.41,55.64,10.33,125.31,4.19,10-.88,20.92-1.84,32.62-2.83-3.8-10.71-7.31-20.75-10.54-29.95-23.28-66.48-34.97-99.84-55.67-113.27-20.67-13.41-55.64-10.32-125.32-4.18-10,.88-20.92,1.85-32.62,2.83Z"/>
          <rect class="st0" x="626.8" y="290.96" width="24.4" height="189.1" transform="translate(-30.53 715.16) rotate(-57.32)"/>
          <path class="st0" d="M537.45,358.95c-22.46,0-40.74-18.28-40.74-40.74s18.28-40.74,40.74-40.74,40.74,18.28,40.74,40.74-18.28,40.74-40.74,40.74ZM537.45,301.87c-9.01,0-16.34,7.33-16.34,16.34s7.33,16.34,16.34,16.34,16.34-7.33,16.34-16.34-7.33-16.34-16.34-16.34Z"/>
          <path class="st0" d="M554.34,436.16c-25.85,0-44.11-3.45-59.34-13.33-27.69-17.96-40.3-53.96-65.42-125.66-4.67-13.33-9.96-28.44-15.82-44.75l-5.39-15.01,15.9-1.27c17.67-1.41,33.93-2.85,48.28-4.11,75.25-6.64,113.02-9.97,140.74,8.01,27.69,17.97,40.3,53.96,65.42,125.67,4.67,13.33,9.96,28.44,15.81,44.75l5.39,15.01-15.89,1.27c-17.67,1.41-33.93,2.85-48.27,4.11-33.9,2.99-60.19,5.3-81.38,5.3ZM442.06,259.16c3.8,10.71,7.31,20.75,10.54,29.95,23.29,66.47,34.97,99.83,55.67,113.26,20.67,13.41,55.64,10.33,125.31,4.19,10-.88,20.92-1.84,32.62-2.83-3.8-10.71-7.31-20.75-10.54-29.95-23.28-66.48-34.97-99.84-55.67-113.27-20.67-13.41-55.64-10.32-125.32-4.18-10,.88-20.92,1.85-32.62,2.83Z"/>
          <rect class="st0" x="626.8" y="290.96" width="24.4" height="189.1" transform="translate(-30.53 715.16) rotate(-57.32)"/>
        </g>
      </g>
    </g>
    <path class="st0" d="M716.87,679.7c-12.97,0-25.93-4.93-35.81-14.81-9.56-9.56-14.83-22.28-14.83-35.81s5.27-26.24,14.83-35.81c9.56-9.56,22.28-14.83,35.81-14.83s26.24,5.27,35.81,14.83h0s0,0,0,0c9.56,9.56,14.83,22.28,14.83,35.81s-5.27,26.24-14.83,35.81c-9.87,9.87-22.84,14.81-35.81,14.81ZM716.87,602.84c-7.01,0-13.6,2.73-18.56,7.69-4.96,4.96-7.69,11.55-7.69,18.56s2.73,13.6,7.69,18.56c10.23,10.23,26.88,10.23,37.12,0,4.96-4.96,7.69-11.55,7.69-18.56s-2.73-13.6-7.69-18.56h0c-4.96-4.96-11.55-7.69-18.56-7.69Z"/>
  </g>
</svg>